<?xml version="1.0" encoding="utf-8"?>
<!-- Generator: Adobe Illustrator 24.1.1, SVG Export Plug-In . SVG Version: 6.00 Build 0)  -->
<svg version="1.1" id="Layer_1" xmlns="http://www.w3.org/2000/svg" xmlns:xlink="http://www.w3.org/1999/xlink" x="0px" y="0px"
	 viewBox="0 0 160 31" style="enable-background:new 0 0 160 31;" xml:space="preserve">
<style type="text/css">
	.st0{fill:none;stroke:#EE99C2;stroke-width:1.2828;stroke-linecap:round;stroke-miterlimit:10;}
	.st1{fill:none;stroke:#EE99C2;stroke-width:1.069;stroke-linecap:round;stroke-miterlimit:10;}
	.st2{fill:#7F7F7F;}
	.st3{fill:#21313C;}
</style>
<path class="st0" d="M8.1,24.9c1.5,0,2.7-1.2,2.7-2.7s-1.2-2.7-2.7-2.7s-2.7,1.2-2.7,2.7C5.5,23.7,6.7,24.9,8.1,24.9z"/>
<path class="st0" d="M7,9.2h16.1"/>
<path class="st0" d="M8.4,12.4h14"/>
<path class="st0" d="M7.7,19.5h10.5c1.1,0,2.2-0.7,2.5-1.8L25,5.2c0.4-1.1,1.4-1.8,2.5-1.8h3.1"/>
<path class="st1" d="M8.1,22.6c0.2,0,0.4-0.2,0.4-0.4c0-0.2-0.2-0.4-0.4-0.4S7.7,22,7.7,22.2C7.7,22.4,7.9,22.6,8.1,22.6z"/>
<path class="st0" d="M17.8,24.9c1.5,0,2.7-1.2,2.7-2.7s-1.2-2.7-2.7-2.7s-2.7,1.2-2.7,2.7C15.2,23.7,16.3,24.9,17.8,24.9z"/>
<path class="st1" d="M17.8,22.6c0.2,0,0.4-0.2,0.4-0.4c0-0.2-0.2-0.4-0.4-0.4c-0.2,0-0.4,0.2-0.4,0.4S17.6,22.6,17.8,22.6z"/>
<path class="st0" d="M21.2,16.2h-14c-0.5,0-0.9-0.3-1-0.8L3.8,6.6C3.6,6.2,3.9,5.8,4.4,5.8h18"/>
<path class="st0" d="M1,26.5c0,0,10.3-3.5,24.1,0"/>
<path class="st2" d="M36.5,25V6.3h12.4v3.3h-8.4V14h7.6v3.3h-7.6V25H36.5z"/>
<path class="st2" d="M50.5,25V11h3.8v2.4h0.1c0.3-0.9,0.7-1.5,1.3-2c0.6-0.4,1.3-0.7,2.1-0.7c0.2,0,0.4,0,0.6,0
	c0.2,0,0.4,0.1,0.6,0.1v3.4c-0.2-0.1-0.4-0.1-0.8-0.1c-0.3,0-0.6-0.1-0.9-0.1c-0.6,0-1.1,0.1-1.5,0.4c-0.4,0.2-0.8,0.6-1.1,1
	s-0.4,0.9-0.4,1.5V25H50.5z"/>
<path class="st2" d="M65.9,25.3c-1.4,0-2.7-0.3-3.7-0.9s-1.8-1.4-2.4-2.5c-0.6-1.1-0.8-2.4-0.8-3.8s0.3-2.7,0.8-3.8
	c0.6-1.1,1.3-1.9,2.4-2.5c1-0.6,2.2-0.9,3.6-0.9c0.9,0,1.8,0.1,2.6,0.4c0.8,0.3,1.5,0.7,2.1,1.3s1.1,1.3,1.4,2.2s0.5,1.9,0.5,3.1V19
	H60.5v-2.4h8.2c0-0.6-0.1-1.1-0.4-1.5c-0.2-0.4-0.6-0.8-1-1s-0.9-0.4-1.5-0.4s-1.1,0.1-1.6,0.4c-0.4,0.3-0.8,0.6-1.1,1.1
	c-0.3,0.4-0.4,1-0.4,1.5V19c0,0.7,0.1,1.3,0.4,1.8c0.3,0.5,0.6,0.9,1.1,1.2c0.5,0.3,1,0.4,1.7,0.4c0.4,0,0.8-0.1,1.2-0.2
	c0.4-0.1,0.7-0.3,0.9-0.5c0.3-0.2,0.4-0.5,0.6-0.9l3.6,0.2c-0.2,0.9-0.6,1.6-1.1,2.3c-0.6,0.6-1.3,1.1-2.2,1.5
	C68.1,25.1,67.1,25.3,65.9,25.3z"/>
<path class="st3" d="M85.7,15l-3.6,0.2c-0.1-0.3-0.2-0.6-0.4-0.8c-0.2-0.2-0.5-0.4-0.8-0.6c-0.3-0.2-0.7-0.2-1.2-0.2
	c-0.6,0-1.1,0.1-1.5,0.4c-0.4,0.2-0.6,0.6-0.6,1c0,0.3,0.1,0.6,0.4,0.8s0.7,0.4,1.4,0.6l2.5,0.5c1.4,0.3,2.4,0.7,3,1.3
	c0.7,0.6,1,1.4,1,2.4c0,0.9-0.3,1.7-0.8,2.4c-0.5,0.7-1.3,1.2-2.2,1.6c-0.9,0.4-2,0.6-3.2,0.6c-1.9,0-3.3-0.4-4.4-1.2
	c-1.1-0.8-1.7-1.8-1.9-3.2l3.8-0.2c0.1,0.6,0.4,1,0.8,1.3s1,0.4,1.7,0.4s1.2-0.1,1.6-0.4s0.6-0.6,0.6-1s-0.2-0.6-0.4-0.9
	c-0.3-0.2-0.7-0.4-1.3-0.5L77.8,19c-1.4-0.3-2.4-0.7-3.1-1.4c-0.7-0.7-1-1.5-1-2.6c0-0.9,0.2-1.7,0.7-2.3s1.2-1.2,2.1-1.5
	c0.9-0.4,1.9-0.5,3.1-0.5c1.8,0,3.2,0.4,4.2,1.1C85,12.7,85.6,13.7,85.7,15z"/>
<path class="st3" d="M91.6,16.9V25h-3.9V6.3h3.8v7.1h0.2c0.3-0.8,0.8-1.5,1.5-1.9c0.7-0.5,1.6-0.7,2.7-0.7c1,0,1.8,0.2,2.5,0.6
	c0.7,0.4,1.3,1,1.7,1.8c0.4,0.8,0.6,1.7,0.6,2.8v9h-3.9v-8.2c0-0.9-0.2-1.5-0.7-2c-0.4-0.5-1.1-0.7-1.8-0.7c-0.5,0-1,0.1-1.4,0.3
	s-0.7,0.6-0.9,1C91.7,15.8,91.6,16.3,91.6,16.9z"/>
<path class="st2" d="M119.5,12.9h-4c-0.1-0.5-0.2-1-0.4-1.4c-0.2-0.4-0.5-0.8-0.9-1c-0.4-0.3-0.8-0.5-1.2-0.7
	c-0.5-0.2-1-0.2-1.5-0.2c-1,0-1.8,0.2-2.5,0.7s-1.3,1.2-1.7,2.1c-0.4,0.9-0.6,2-0.6,3.3s0.2,2.4,0.6,3.4c0.4,0.9,1,1.6,1.7,2
	c0.7,0.5,1.5,0.7,2.5,0.7c0.5,0,1-0.1,1.5-0.2s0.9-0.3,1.2-0.6c0.4-0.3,0.6-0.6,0.9-1c0.2-0.4,0.4-0.8,0.5-1.3h4
	c-0.1,0.9-0.4,1.7-0.8,2.5s-1,1.5-1.6,2.1c-0.7,0.6-1.5,1.1-2.5,1.5c-0.9,0.4-2,0.5-3.2,0.5c-1.7,0-3.2-0.4-4.5-1.1
	c-1.3-0.8-2.3-1.8-3.1-3.3c-0.8-1.4-1.1-3.2-1.1-5.2s0.4-3.8,1.1-5.2s1.8-2.5,3.1-3.3c1.3-0.8,2.8-1.1,4.4-1.1c1.1,0,2.1,0.2,3,0.5
	s1.8,0.7,2.5,1.3s1.3,1.3,1.7,2.1C119.1,10.8,119.4,11.8,119.5,12.9z"/>
<path class="st2" d="M125.5,25.3c-0.9,0-1.7-0.2-2.4-0.5c-0.7-0.3-1.3-0.8-1.7-1.4c-0.4-0.6-0.6-1.4-0.6-2.3c0-0.8,0.1-1.4,0.4-2
	c0.3-0.5,0.7-1,1.2-1.3s1.1-0.6,1.7-0.7c0.6-0.2,1.3-0.3,2-0.3c0.8-0.1,1.5-0.2,2-0.2c0.5-0.1,0.9-0.2,1.1-0.3
	c0.2-0.2,0.3-0.4,0.3-0.7v-0.1c0-0.6-0.2-1-0.5-1.3c-0.4-0.3-0.9-0.5-1.5-0.5c-0.7,0-1.3,0.2-1.7,0.5c-0.4,0.3-0.7,0.7-0.8,1.1
	l-3.6-0.3c0.2-0.9,0.5-1.6,1.1-2.2c0.5-0.6,1.2-1.1,2.1-1.4c0.8-0.3,1.8-0.5,3-0.5c0.8,0,1.5,0.1,2.2,0.3c0.7,0.2,1.4,0.5,1.9,0.8
	c0.6,0.4,1,0.9,1.3,1.5s0.5,1.3,0.5,2.1V25h-3.7v-1.9h-0.1c-0.2,0.4-0.5,0.8-0.9,1.2c-0.4,0.3-0.8,0.6-1.4,0.8
	C126.8,25.2,126.2,25.3,125.5,25.3z M126.6,22.6c0.6,0,1.1-0.1,1.5-0.3c0.4-0.2,0.8-0.5,1-0.9s0.4-0.8,0.4-1.3v-1.5
	c-0.1,0.1-0.3,0.2-0.5,0.2c-0.2,0.1-0.4,0.1-0.7,0.2c-0.3,0-0.5,0.1-0.8,0.1s-0.5,0.1-0.7,0.1c-0.5,0.1-0.9,0.2-1.2,0.3
	c-0.3,0.1-0.6,0.3-0.8,0.6c-0.2,0.2-0.3,0.5-0.3,0.9c0,0.5,0.2,0.9,0.6,1.2C125.5,22.4,126,22.6,126.6,22.6z"/>
<path class="st2" d="M135.6,25V11h3.8v2.4h0.1c0.3-0.9,0.7-1.5,1.3-2c0.6-0.4,1.3-0.7,2.1-0.7c0.2,0,0.4,0,0.6,0
	c0.2,0,0.4,0.1,0.6,0.1v3.4c-0.2-0.1-0.4-0.1-0.8-0.1c-0.3,0-0.6-0.1-0.9-0.1c-0.6,0-1.1,0.1-1.5,0.4c-0.4,0.2-0.8,0.6-1.1,1
	s-0.4,0.9-0.4,1.5V25H135.6z"/>
<path class="st2" d="M153.5,11v2.9h-8.4V11H153.5z M147,7.7h3.9v13c0,0.4,0.1,0.6,0.2,0.8c0.1,0.2,0.3,0.3,0.5,0.4s0.4,0.1,0.7,0.1
	c0.2,0,0.4,0,0.5,0c0.2,0,0.3-0.1,0.4-0.1l0.6,2.9c-0.2,0.1-0.5,0.1-0.8,0.2c-0.4,0.1-0.8,0.1-1.3,0.2c-0.9,0-1.8-0.1-2.5-0.4
	s-1.2-0.7-1.6-1.3c-0.4-0.6-0.6-1.4-0.6-2.3L147,7.7L147,7.7z"/>
</svg>
